<svg width="36" height="37" viewBox="0 0 36 37" fill="none" xmlns="http://www.w3.org/2000/svg">
<path d="M28 19.5H8C7.448 19.5 7 19.052 7 18.5C7 17.948 7.448 17.5 8 17.5H28C28.552 17.5 29 17.948 29 18.5C29 19.052 28.552 19.5 28 19.5ZM29 11.5C29 10.948 28.552 10.5 28 10.5H8C7.448 10.5 7 10.948 7 11.5C7 12.052 7.448 12.5 8 12.5H28C28.552 12.5 29 12.052 29 11.5ZM29 25.5C29 24.948 28.552 24.5 28 24.5H8C7.448 24.5 7 24.948 7 25.5C7 26.052 7.448 26.5 8 26.5H28C28.552 26.5 29 26.052 29 25.5Z" fill="white"/>
</svg>
