<svg width="16" height="12" viewBox="0 0 16 12" fill="none" xmlns="http://www.w3.org/2000/svg">
<path d="M11.8384 5.8571C12.6374 5.8571 13.3166 6.13675 13.8759 6.69605C14.4352 7.25535 14.7148 7.9345 14.7148 8.7335C14.7148 9.5325 14.4352 10.2316 13.8759 10.8309C13.3166 11.3902 12.6175 11.6698 11.7785 11.6698C10.9396 11.6698 10.2604 11.3902 9.74107 10.8309C9.22172 10.2716 8.92209 9.51253 8.84219 8.55372C8.64244 6.91577 9.04194 5.33775 10.0407 3.81965C11.0394 2.30155 12.5575 1.18294 14.595 0.463844L15.0744 1.36272C13.1967 1.84212 11.9183 2.78095 11.2392 4.1792C10.9196 5.138 11.1193 5.6973 11.8384 5.8571ZM3.98826 5.8571C4.78727 5.8571 5.46642 6.13675 6.02572 6.69605C6.58502 7.25535 6.86467 7.9345 6.86467 8.7335C6.86467 9.5325 6.58502 10.2316 6.02572 10.8309C5.46642 11.3902 4.76729 11.6698 3.92834 11.6698C3.08939 11.6698 2.41024 11.3902 1.89089 10.8309C1.37154 10.2716 1.07191 9.51253 0.992013 8.55372C0.792263 6.91577 1.19176 5.33775 2.19051 3.81965C3.18926 2.30155 4.70737 1.18294 6.74482 0.463844L7.22422 1.36272C5.34657 1.84212 4.06817 2.78095 3.38901 4.1792C3.06941 5.138 3.26916 5.6973 3.98826 5.8571Z" fill="#0A1425"/>
</svg>
